<svg width="167" height="40" viewBox="0 0 167 40" fill="none" xmlns="http://www.w3.org/2000/svg">
<path d="M48.9598 28.0283H60.9115V24.4284H53.2077V10.8687H48.9598V28.0283ZM67.9913 25.6284C66.2884 25.6284 65.4004 24.1404 65.4004 21.9085C65.4004 19.6765 66.2884 18.1646 67.9923 18.1646C69.6963 18.1646 70.6083 19.6765 70.6083 21.9085C70.6083 24.1404 69.6953 25.6284 67.9913 25.6284ZM68.0163 28.4123C71.9762 28.4123 74.5682 25.6044 74.5682 21.9085C74.5682 18.2126 71.9762 15.4046 68.0163 15.4046C64.0804 15.4046 61.4405 18.2126 61.4405 21.9085C61.4405 25.6044 64.0804 28.4123 68.0163 28.4123ZM81.422 32.2762C83.246 32.2762 84.8539 31.8682 85.9339 30.9082C86.9179 30.0203 87.5659 28.6763 87.5659 26.8283V15.7406H83.822V17.0606H83.774C83.054 16.0286 81.95 15.3806 80.318 15.3806C77.2701 15.3806 75.1582 17.9246 75.1582 21.5245C75.1582 25.2924 77.7261 27.3563 80.486 27.3563C81.974 27.3563 82.91 26.7563 83.63 25.9404H83.726V27.1643C83.726 28.6523 83.03 29.5163 81.374 29.5163C80.078 29.5163 79.4301 28.9643 79.2141 28.3163H75.4222C75.8061 30.8842 78.0381 32.2762 81.422 32.2762ZM81.398 24.4524C79.9341 24.4524 78.9741 23.2524 78.9741 21.4045C78.9741 19.5325 79.9341 18.3326 81.398 18.3326C83.03 18.3326 83.8939 19.7245 83.8939 21.3805C83.8939 23.1084 83.102 24.4524 81.398 24.4524ZM95.2647 25.6284C93.5597 25.6284 92.6717 24.1404 92.6717 21.9085C92.6717 19.6765 93.5597 18.1646 95.2647 18.1646C96.9676 18.1646 97.8796 19.6765 97.8796 21.9085C97.8796 24.1404 96.9676 25.6284 95.2647 25.6284ZM95.2877 28.4123C99.2476 28.4123 101.84 25.6044 101.84 21.9085C101.84 18.2126 99.2476 15.4046 95.2877 15.4046C91.3518 15.4046 88.7118 18.2126 88.7118 21.9085C88.7118 25.6044 91.3518 28.4123 95.2877 28.4123ZM102.982 28.0283H106.894V15.7406H102.982V28.0283ZM102.982 14.0367H106.894V10.8687H102.982V14.0367ZM108.591 32.0842H112.503V26.7563H112.551C113.319 27.7883 114.447 28.4123 116.031 28.4123C119.247 28.4123 121.383 25.8684 121.383 21.8845C121.383 18.1886 119.391 15.3806 116.127 15.3806C114.447 15.3806 113.247 16.1246 112.407 17.2286H112.335V15.7406H108.591V32.0842ZM115.023 25.3884C113.343 25.3884 112.383 24.0204 112.383 22.0285C112.383 20.0365 113.247 18.5245 114.951 18.5245C116.631 18.5245 117.423 19.9165 117.423 22.0285C117.423 24.1164 116.511 25.3884 115.023 25.3884ZM127.752 28.4123C130.968 28.4123 133.344 27.0203 133.344 24.3324C133.344 21.1885 130.8 20.6365 128.64 20.2765C127.08 19.9885 125.688 19.8685 125.688 19.0045C125.688 18.2366 126.432 17.8766 127.392 17.8766C128.472 17.8766 129.216 18.2126 129.36 19.3165H132.96C132.768 16.8926 130.896 15.3806 127.416 15.3806C124.512 15.3806 122.112 16.7246 122.112 19.3165C122.112 22.1965 124.392 22.7724 126.528 23.1324C128.16 23.4204 129.648 23.5404 129.648 24.6444C129.648 25.4364 128.904 25.8684 127.728 25.8684C126.432 25.8684 125.616 25.2684 125.472 24.0444H121.776C121.896 26.7563 124.152 28.4123 127.752 28.4123ZM138.658 28.3883C140.362 28.3883 141.442 27.7163 142.33 26.5164H142.402V28.0283H146.145V15.7406H142.234V22.6044C142.234 24.0684 141.418 25.0764 140.074 25.0764C138.826 25.0764 138.226 24.3324 138.226 22.9884V15.7406H134.338V23.8044C134.338 26.5404 135.826 28.3883 138.658 28.3883ZM147.847 28.0283H151.759V21.1405C151.759 19.6765 152.479 18.6445 153.703 18.6445C154.879 18.6445 155.431 19.4125 155.431 20.7325V28.0283H159.343V21.1405C159.343 19.6765 160.039 18.6445 161.287 18.6445C162.463 18.6445 163.015 19.4125 163.015 20.7325V28.0283H166.927V20.0365C166.927 17.2766 165.535 15.3806 162.751 15.3806C161.167 15.3806 159.847 16.0526 158.887 17.5406H158.839C158.215 16.2206 156.991 15.3806 155.383 15.3806C153.607 15.3806 152.431 16.2206 151.663 17.4926H151.591V15.7406H147.847V28.0283ZM25.0924 1.05397L21.1595 0L17.8456 12.3697L14.8526 1.20197L10.9197 2.25694L14.1527 14.3227L6.09985 6.26985L3.22092 9.14978L12.0537 17.9816L1.05397 15.0336L0 18.9665L12.0187 22.1865C11.2607 18.9185 12.5837 15.5196 15.3526 13.6247C18.1216 11.7297 21.7695 11.7277 24.5414 13.6187C27.3123 15.5086 28.6413 18.9065 27.8873 22.1755L38.81 25.1014L39.863 21.1685L27.7973 17.9356L38.7971 14.9876L37.7441 11.0547L25.6784 14.2877L33.7302 6.23585L30.8512 3.35592L22.1415 12.0657L25.0924 1.05397Z" fill="#2F3547"/>
<path d="M27.8763 22.2205C27.5443 23.6224 26.8444 24.9104 25.8504 25.9534L33.7632 33.8662L36.6431 30.9862L27.8763 22.2205ZM25.7704 26.0364C24.7684 27.0613 23.5124 27.8033 22.1315 28.1873L25.0114 38.933L28.9443 37.8791L25.7704 26.0364ZM21.9855 28.2263C21.3205 28.3973 20.6375 28.4833 19.9515 28.4823C19.2175 28.4833 18.4876 28.3843 17.7796 28.1893L14.8976 38.946L18.8306 40L21.9855 28.2263ZM17.6406 28.1503C16.2786 27.7463 15.0466 26.9933 14.0657 25.9664L6.13386 33.8992L9.01279 36.7791L17.6406 28.1503ZM13.9997 25.8964C13.0307 24.8614 12.3497 23.5904 12.0247 22.2105L1.06598 25.1464L2.11996 29.0793L13.9997 25.8964Z" fill="#2F3547"/>
</svg>
