<svg width="142" height="33" viewBox="0 0 142 33" fill="none" xmlns="http://www.w3.org/2000/svg">
<path d="M20.9774 22.6649V30.7585H12.1023C5.41857 30.7585 0 25.3229 0 18.617V0H8.06852V18.617C8.06852 20.8527 9.87471 22.6649 12.1023 22.6649H20.9774ZM36.3068 8.09467C32.2962 8.09467 29.0449 11.3561 29.0449 15.3798C29.0449 19.4025 32.2962 22.6649 36.3068 22.6649C40.3165 22.6649 43.5678 19.4025 43.5678 15.3798C43.5678 11.3561 40.3165 8.09467 36.3068 8.09467ZM20.9774 15.3798C20.9774 6.88585 27.8411 0 36.3068 0C44.7726 0 51.6363 6.88585 51.6363 15.3798C51.6363 23.8727 44.7726 30.7585 36.3068 30.7585C27.8411 30.7585 20.9774 23.8727 20.9774 15.3798ZM123.442 8.09467C119.432 8.09467 116.181 11.3561 116.181 15.3798C116.181 19.4025 119.432 22.6649 123.442 22.6649C127.452 22.6649 130.703 19.4025 130.703 15.3798C130.703 11.3561 127.452 8.09467 123.442 8.09467ZM108.113 15.3798C108.113 6.88585 114.977 0 123.442 0C131.908 0 138.772 6.88585 138.772 15.3798C138.772 23.8727 131.908 30.7585 123.442 30.7585C114.977 30.7585 108.113 23.8727 108.113 15.3798ZM91.1694 0C99.6351 0 106.499 6.88585 106.499 15.3798V16.4005C106.499 18.9228 105.88 21.4068 104.699 23.6323L100.044 32.3777L95.7311 30.0656C94.291 30.5162 92.7584 30.7585 91.1694 30.7585H68.5789C60.1132 30.7585 53.2494 23.8727 53.2494 15.3798C53.2494 6.88585 60.1132 0 68.5789 0H91.1694ZM98.4314 15.3798C98.4314 11.3561 95.18 8.09467 91.1694 8.09467H68.5789C64.5683 8.09467 61.318 11.3561 61.318 15.3798C61.318 19.4025 64.5683 22.6649 68.5789 22.6649H91.1694C95.1589 22.6659 98.4012 19.4377 98.4314 15.4361V15.3798Z" fill="#2F3547"/>
<path d="M141.999 2.02342C142.02 2.75958 141.64 3.44947 141.008 3.82358C140.376 4.1987 139.591 4.1987 138.958 3.82459C138.325 3.45047 137.946 2.76058 137.966 2.02443C137.998 0.92925 138.891 0.058336 139.983 0.0573303C141.074 0.0573303 141.968 0.928244 141.999 2.02342Z" fill="#2F3547"/>
</svg>
