<svg width="133" height="32" viewBox="0 0 133 32" fill="none" xmlns="http://www.w3.org/2000/svg">
<path d="M7.88134 1.96253V31.4046H0V1.96253H7.88134ZM11.8225 1.96253H28.571C34.011 1.96253 38.4219 6.35636 38.4219 11.7762C38.4219 17.1971 34.011 21.5899 28.571 21.5899H19.7038V31.4046H11.8225V1.96253ZM19.7038 13.7398H28.571C29.6574 13.7398 30.5396 12.8616 30.5406 11.7762C30.5406 10.6929 29.6594 9.81369 28.571 9.81369H19.7038V13.7398ZM67.9777 1.96253V17.174C67.9777 20.6967 70.8445 23.5535 74.3813 23.5535C77.9181 23.5535 80.785 20.6967 80.785 17.174V1.96253H88.6663V17.174C88.6663 25.0332 82.2707 31.4046 74.3813 31.4046C66.4919 31.4046 60.0963 25.0332 60.0963 17.174V1.96253H67.9777Z" fill="#2F3547"/>
<path d="M41.3783 15.7023C41.3783 8.11369 47.5526 1.96253 55.1704 1.96253H57.14V9.81369H55.1704C51.9052 9.81369 49.2596 12.4502 49.2596 15.7023V16.6831C49.2596 24.8129 42.6427 31.4046 34.4817 31.4046H33.496V23.5535H34.4817C38.2901 23.5535 41.3783 20.4774 41.3783 16.6831V15.7023Z" fill="#2F3547"/>
<path d="M133 2.94431C132.999 3.72591 132.687 4.47431 132.133 5.02656C131.579 5.5788 130.827 5.88863 130.044 5.88863C129.26 5.88863 128.509 5.5788 127.955 5.02656C127.401 4.47431 127.089 3.72591 127.088 2.94431C127.089 2.16272 127.401 1.41331 127.955 0.861065C128.509 0.308818 129.26 -0.00100347 130.044 2.44183e-06C130.827 -0.00100347 131.579 0.308818 132.133 0.861065C132.687 1.41331 132.999 2.16272 133 2.94431ZM97.1291 31.4046L100.89 15.7164L103.687 25.1539C105.353 30.783 113.357 30.783 115.025 25.1539L117.821 15.7174L121.581 31.4046H129.684L123.771 6.73661C122.364 0.869112 114.066 0.651835 112.352 6.43685L109.356 16.5523L106.358 6.43785C104.645 0.652841 96.3465 0.870119 94.9392 6.73661L89.0264 31.4046H97.1291Z" fill="#2F3547"/>
</svg>
