<svg width="170" height="40" viewBox="0 0 170 40" fill="none" xmlns="http://www.w3.org/2000/svg">
<path d="M51.177 29H63.129V25.4H55.425V11.84H51.177V29ZM70.209 26.6C68.506 26.6 67.618 25.112 67.618 22.88C67.618 20.648 68.506 19.136 70.21 19.136C71.914 19.136 72.826 20.648 72.826 22.88C72.826 25.112 71.913 26.6 70.209 26.6ZM70.234 29.384C74.194 29.384 76.786 26.576 76.786 22.88C76.786 19.184 74.194 16.376 70.234 16.376C66.298 16.376 63.658 19.184 63.658 22.88C63.658 26.576 66.298 29.384 70.234 29.384ZM83.64 33.248C85.464 33.248 87.072 32.84 88.152 31.88C89.136 30.992 89.784 29.648 89.784 27.8V16.712H86.04V18.032H85.992C85.272 17 84.168 16.352 82.536 16.352C79.488 16.352 77.376 18.896 77.376 22.496C77.376 26.264 79.944 28.328 82.704 28.328C84.192 28.328 85.128 27.728 85.848 26.912H85.944V28.136C85.944 29.624 85.248 30.488 83.592 30.488C82.296 30.488 81.648 29.936 81.432 29.288H77.64C78.024 31.856 80.256 33.248 83.64 33.248ZM83.616 25.424C82.152 25.424 81.192 24.224 81.192 22.376C81.192 20.504 82.152 19.304 83.616 19.304C85.248 19.304 86.112 20.696 86.112 22.352C86.112 24.08 85.32 25.424 83.616 25.424ZM97.482 26.6C95.778 26.6 94.89 25.112 94.89 22.88C94.89 20.648 95.778 19.136 97.482 19.136C99.186 19.136 100.098 20.648 100.098 22.88C100.098 25.112 99.186 26.6 97.482 26.6ZM97.506 29.384C101.466 29.384 104.058 26.576 104.058 22.88C104.058 19.184 101.466 16.376 97.506 16.376C93.57 16.376 90.93 19.184 90.93 22.88C90.93 26.576 93.57 29.384 97.506 29.384ZM105.201 29H109.113V16.712H105.201V29ZM105.201 15.008H109.113V11.84H105.201V15.008ZM110.81 33.057H114.722V27.727H114.77C115.538 28.759 116.666 29.383 118.25 29.383C121.466 29.383 123.602 26.839 123.602 22.855C123.602 19.159 121.61 16.351 118.346 16.351C116.666 16.351 115.466 17.095 114.626 18.199H114.554V16.711H110.81V33.057ZM117.242 26.36C115.562 26.36 114.602 24.992 114.602 23C114.602 21.008 115.466 19.496 117.17 19.496C118.85 19.496 119.642 20.888 119.642 23C119.642 25.088 118.73 26.36 117.242 26.36ZM129.971 29.384C133.187 29.384 135.563 27.992 135.563 25.304C135.563 22.16 133.019 21.608 130.859 21.248C129.299 20.96 127.907 20.84 127.907 19.976C127.907 19.208 128.651 18.848 129.611 18.848C130.691 18.848 131.435 19.184 131.579 20.288H135.179C134.987 17.864 133.115 16.352 129.635 16.352C126.731 16.352 124.331 17.696 124.331 20.288C124.331 23.168 126.611 23.744 128.747 24.104C130.379 24.392 131.867 24.512 131.867 25.616C131.867 26.408 131.123 26.84 129.947 26.84C128.651 26.84 127.835 26.24 127.691 25.016H123.995C124.115 27.728 126.371 29.384 129.971 29.384ZM140.877 29.36C142.581 29.36 143.661 28.688 144.549 27.488H144.621V29H148.365V16.712H144.453V23.577C144.453 25.041 143.637 26.049 142.293 26.049C141.045 26.049 140.445 25.305 140.445 23.961V16.713H136.557V24.777C136.557 27.513 138.045 29.36 140.877 29.36ZM150.067 29H153.979V22.112C153.979 20.648 154.699 19.616 155.923 19.616C157.099 19.616 157.651 20.384 157.651 21.704V29H161.563V22.112C161.563 20.648 162.259 19.616 163.507 19.616C164.683 19.616 165.235 20.384 165.235 21.704V29H169.147V21.008C169.147 18.248 167.755 16.352 164.971 16.352C163.387 16.352 162.067 17.024 161.107 18.512H161.059C160.435 17.192 159.211 16.352 157.603 16.352C155.827 16.352 154.651 17.192 153.883 18.464H153.811V16.712H150.067V29Z" fill="#2F3547"/>
<path d="M0 20C0 8.955 8.955 0 20 0C31.046 0 40 8.955 40 20C40 31.046 31.046 40 20 40C8.955 40 0 31.046 0 20ZM23.087 15.453C24.336 14.204 24.71 12.326 24.034 10.695C23.359 9.063 21.767 7.999 20 7.999C18.234 7.999 16.642 9.063 15.967 10.695C15.291 12.326 15.665 14.204 16.914 15.453L20 18.54L23.087 15.453ZM24.547 23.087C25.796 24.336 27.674 24.709 29.305 24.034C30.937 23.358 32 21.766 32 20C32 18.234 30.937 16.642 29.305 15.966C27.674 15.291 25.796 15.664 24.547 16.913L21.461 20L24.547 23.087ZM23.087 30.722C24.792 29.017 24.792 26.253 23.087 24.548L20 21.461L16.914 24.548C15.26 26.261 15.284 28.984 16.967 30.668C18.651 32.352 21.374 32.376 23.087 30.722ZM15.453 23.087L18.54 20L15.453 16.913C13.742 15.243 11.007 15.26 9.316 16.95C7.626 18.641 7.609 21.376 9.279 23.087C10.984 24.792 13.748 24.792 15.453 23.087Z" fill="#2F3547"/>
</svg>
