<svg width="98" height="38" viewBox="0 0 98 38" fill="none" xmlns="http://www.w3.org/2000/svg">
<path d="M23.2621 1.19219e-06C19.4352 1.19219e-06 15.7637 1.52594 13.0577 4.24295L4.22691 13.1098C1.52093 15.8259 0.00100259 19.5094 0 23.3513C0 31.3549 6.46068 37.8397 14.4303 37.8397C18.2571 37.8397 21.9276 36.3137 24.6346 33.5967L30.7434 27.4639L48.5423 9.59477C50.2367 7.89238 52.691 7.19658 55.022 7.75703C57.3531 8.31647 59.2269 10.053 59.9698 12.3409L65.5873 6.7013C62.9385 2.52552 58.3476 -0.00200398 53.4159 1.19219e-06C49.589 1.19219e-06 45.9175 1.52594 43.2116 4.24295L19.3038 28.2459C16.6119 30.9479 12.2486 30.9479 9.55667 28.2449C6.86572 25.5429 6.86572 21.1626 9.55767 18.4607L18.3885 9.59377C20.0828 7.89137 22.5372 7.19558 24.8682 7.75602C27.1992 8.31647 29.0731 10.053 29.816 12.3409L35.4335 6.7023C32.7846 2.52652 28.1938 -0.00200398 23.2621 1.19219e-06Z" fill="#2F3547"/>
<path d="M49.4577 28.2449C47.7633 29.9473 45.31 30.6431 42.979 30.0837C40.6469 29.5232 38.7731 27.7877 38.0302 25.4998L32.4137 31.1384C35.0625 35.3142 39.6524 37.8417 44.5841 37.8397C48.411 37.8397 52.0815 36.3137 54.7885 33.5967L78.6962 9.59377C81.3881 6.89179 85.7514 6.89179 88.4433 9.59377C91.1343 12.2967 91.1343 16.6771 88.4423 19.379L79.6115 28.2459C77.9162 29.9483 75.4628 30.6441 73.1318 30.0837C70.7998 29.5232 68.927 27.7867 68.184 25.4988L62.5665 31.1384C65.2154 35.3142 69.8062 37.8427 74.737 37.8397C78.5648 37.8397 82.2353 36.3137 84.9423 33.5967L93.7731 24.7298C96.4791 22.0128 97.999 18.3293 98 14.4874C98 6.48474 91.5393 0 83.5698 0C79.7429 0 76.0714 1.52594 73.3654 4.24295L49.4577 28.2449Z" fill="#2F3547"/>
</svg>
