<svg width="185" height="48" viewBox="0 0 185 48" fill="none" xmlns="http://www.w3.org/2000/svg">
<rect width="48" height="48" rx="24" fill="#6030FF"/>
<path d="M23.5 12L16.25 24H23.5L30.4361 12.5196C30.5756 12.2887 30.9244 12.2887 31.0639 12.5196L38 24L31.2732 35.134C30.9495 35.6699 30.3511 36 29.7036 36H23.5L30.75 24L23.5 24L16.5639 35.4804C16.4244 35.7113 16.0756 35.7113 15.9361 35.4804L9 24L15.7268 12.866C16.0505 12.3301 16.6489 12 17.2964 12L23.5 12Z" fill="#FFD950"/>
<path d="M56 24.7966L59.5454 24.848C59.666 26.5953 60.9683 27.803 63.0425 27.803C64.7067 27.803 65.9367 27.0321 65.9367 25.6188C65.9367 24.1028 64.562 23.7944 61.7401 23.2034C58.8942 22.6381 56.3859 21.6617 56.3859 18.0128C56.3859 14.8266 58.8701 12.5653 62.6807 12.5653C66.6602 12.5653 69.1926 14.7752 69.2409 18.2184H65.6955C65.5267 16.7024 64.4414 15.6488 62.6807 15.6488C61.1372 15.6488 60.0277 16.3426 60.0277 17.7302C60.0277 19.1949 61.3542 19.5032 64.1519 20.0685C67.0461 20.6338 69.6026 21.5589 69.5785 25.182C69.5544 28.5482 66.9497 30.8608 62.9943 30.8608C58.7012 30.8608 56.0241 28.4454 56 24.7966Z" fill="#0A0D11"/>
<path d="M77.9958 17.3448C80.6729 17.3448 82.9641 18.8608 82.9641 23.3833V30.7066H79.5635V23.743C79.5635 21.5075 78.7676 20.3255 77.0552 20.3255C75.2945 20.3255 74.2816 21.6617 74.2816 23.9486V30.7066H70.8809V17.4989H73.8474L74.161 19.1435C74.9569 18.1156 76.0904 17.3448 77.9958 17.3448Z" fill="#0A0D11"/>
<path d="M96.3218 27.6488H96.7077V30.7066H94.9712C93.2106 30.7066 92.6559 29.8073 92.68 28.5482C91.8117 30.0128 90.5576 30.8608 88.6281 30.8608C85.951 30.8608 84.0215 29.4989 84.0215 26.9807C84.0215 24.1799 85.9992 22.5867 89.7134 22.5867H92.1735V21.9443C92.1735 20.7623 91.3776 19.9914 89.9546 19.9914C88.6281 19.9914 87.7357 20.6338 87.591 21.6103H84.311C84.5521 19.0407 86.771 17.3448 90.0511 17.3448C93.5241 17.3448 95.5259 18.9893 95.5259 22.1499V26.8266C95.5259 27.5203 95.7912 27.6488 96.3218 27.6488ZM92.1735 25.2591V25.0021H89.6893C88.2663 25.0021 87.4463 25.6188 87.4463 26.7238C87.4463 27.6488 88.1458 28.2398 89.2793 28.2398C91.0641 28.2398 92.1494 27.0578 92.1735 25.2591Z" fill="#0A0D11"/>
<path d="M104.535 17.3448C107.888 17.3191 110.299 19.9657 110.299 24.1285C110.299 28.2398 107.888 30.8608 104.559 30.8608C102.847 30.8608 101.617 30.1156 100.821 29.0364V35.8458H97.4203V17.4989H100.387L100.725 19.3233C101.52 18.1927 102.775 17.3448 104.535 17.3448ZM103.788 27.9058C105.645 27.9058 106.851 26.3383 106.851 24.0771C106.851 21.8415 105.645 20.2998 103.788 20.2998C101.93 20.2998 100.773 21.8415 100.773 24.0771C100.773 26.3383 101.93 27.9058 103.788 27.9058Z" fill="#0A0D11"/>
<path d="M118 30.7066H111.85V12.7195H118C123.258 12.7195 126.755 16.394 126.755 21.6874C126.755 26.955 123.258 30.7066 118 30.7066ZM115.468 15.9315V27.4946H118C121.232 27.4946 123.041 25.1049 123.041 21.6874C123.041 18.2441 121.232 15.9315 118 15.9315H115.468Z" fill="#0A0D11"/>
<path d="M134.207 30.8608C130.083 30.8608 127.599 28.2141 127.599 24.1285C127.599 20.0171 130.132 17.3448 133.966 17.3448C137.681 17.3448 140.189 19.8116 140.237 23.6916C140.237 24.0771 140.213 24.5139 140.141 24.9251H131.144V25.1049C131.217 26.9807 132.35 28.1114 134.063 28.1114C135.438 28.1114 136.402 27.469 136.692 26.2355H140.044C139.658 28.8051 137.512 30.8608 134.207 30.8608ZM131.217 22.561H136.812C136.571 20.9422 135.534 20.0428 133.99 20.0428C132.519 20.0428 131.41 20.9936 131.217 22.561Z" fill="#0A0D11"/>
<path d="M140.819 26.3126H144.051C144.172 27.469 145.112 28.2655 146.777 28.2655C148.2 28.2655 149.068 27.7773 149.068 26.8522C149.068 25.773 148.224 25.6959 146.222 25.4133C143.328 25.0535 141.085 24.3597 141.085 21.636C141.085 19.015 143.231 17.2934 146.415 17.3191C149.743 17.3191 152.034 18.8865 152.203 21.5846H148.947C148.851 20.531 147.91 19.8887 146.535 19.8887C145.209 19.8887 144.341 20.4026 144.341 21.2505C144.341 22.2527 145.402 22.3555 147.187 22.5867C150.033 22.8951 152.396 23.5889 152.396 26.5696C152.396 29.1906 150.081 30.8608 146.753 30.8608C143.304 30.8608 140.964 29.1392 140.819 26.3126Z" fill="#0A0D11"/>
<path d="M155.297 16.0857C154.188 16.0857 153.319 15.212 153.319 14.0557C153.319 12.8737 154.188 12 155.297 12C156.406 12 157.275 12.8737 157.275 14.0557C157.275 15.212 156.406 16.0857 155.297 16.0857ZM153.585 30.7066V17.4989H157.009V30.7066H153.585Z" fill="#0A0D11"/>
<path d="M167.869 19.3233L168.158 17.4989H171.149V30.3212C171.149 33.5846 169.268 36 164.516 36C161.067 36 158.704 34.3298 158.535 31.2719H161.96C162.273 32.5311 163.214 33.2505 164.782 33.2505C166.687 33.2505 167.821 32.2484 167.821 30.1927V28.8051C167 29.9101 165.77 30.6296 164.034 30.6296C160.706 30.6552 158.27 28.06 158.27 23.9743C158.27 19.94 160.706 17.3191 164.01 17.3191C165.795 17.3191 167.049 18.167 167.869 19.3233ZM164.782 27.7259C166.639 27.7259 167.796 26.2099 167.796 24.0257C167.796 21.8158 166.639 20.2484 164.782 20.2484C162.925 20.2484 161.743 21.7902 161.743 24C161.743 26.2099 162.925 27.7259 164.782 27.7259Z" fill="#0A0D11"/>
<path d="M180.032 17.3448C182.709 17.3448 185 18.8608 185 23.3833V30.7066H181.599V23.743C181.599 21.5075 180.803 20.3255 179.091 20.3255C177.33 20.3255 176.317 21.6617 176.317 23.9486V30.7066H172.917V17.4989H175.883L176.197 19.1435C176.993 18.1156 178.126 17.3448 180.032 17.3448Z" fill="#0A0D11"/>
</svg>
