<svg width="24" height="24" viewBox="0 0 24 24" fill="none" xmlns="http://www.w3.org/2000/svg">
<g clip-path="url(#clip0_8_1359)">
<path d="M23.2 0H2.40002C1.95816 0 1.60001 0.358193 1.60001 0.800006V11.2H0.800006C0.358193 11.2 0 11.5582 0 12V23.2C0 23.6418 0.358193 24 0.800006 24H12C12.4418 24 12.8 23.6418 12.8 23.2V22.4H23.2C23.6418 22.4 24 22.0418 24 21.6V0.800006C24 0.358193 23.6418 0 23.2 0ZM11.2 22.4H1.60001V12.8H11.2V22.4ZM22.4 20.8H12.8V12C12.8 11.5582 12.4418 11.2 12 11.2H3.19998V1.60001H22.4V20.8Z" fill="#D33C1F"/>
<path d="M14.4005 10.4002C14.6126 10.4002 14.8161 10.3158 14.9661 10.1658L19.2004 5.9314V8.00019C19.2004 8.442 19.5586 8.80019 20.0005 8.80019C20.4423 8.80019 20.8005 8.442 20.8005 8.00019V3.2002H16.0004C15.5586 3.2002 15.2004 3.55839 15.2004 4.0002C15.2004 4.44201 15.5586 4.80021 16.0004 4.80021H18.0692L13.8348 9.0346C13.5225 9.34705 13.5225 9.85361 13.835 10.166C13.985 10.3159 14.1884 10.4002 14.4005 10.4002Z" fill="#D33C1F"/>
</g>
<defs>
<clipPath id="clip0_8_1359">
<rect width="24" height="24" fill="white"/>
</clipPath>
</defs>
</svg>
