<svg width="24" height="24" viewBox="0 0 24 24" fill="none" xmlns="http://www.w3.org/2000/svg">
<g clip-path="url(#clip0_8_1368)">
<path d="M20.4688 16.9375C20.151 16.9375 19.8433 16.9804 19.5502 17.0594L18.4097 14.7785C19.2343 14.1315 19.7656 13.127 19.7656 12C19.7656 10.0528 18.1815 8.46872 16.2344 8.46872C15.9166 8.46872 15.6089 8.51161 15.3158 8.59064L14.1753 6.30975C14.9999 5.66273 15.5312 4.65816 15.5312 3.53119C15.5312 1.58409 13.9471 0 12 0C10.0529 0 8.46877 1.58409 8.46877 3.53123C8.46877 4.6582 9.00005 5.66278 9.82463 6.3098L8.6842 8.59069C8.39114 8.51166 8.08336 8.46877 7.76564 8.46877C5.8185 8.46877 4.23441 10.0529 4.23441 12C4.23441 13.127 4.76569 14.1315 5.59027 14.7786L4.44984 17.0595C4.15678 16.9804 3.849 16.9375 3.53128 16.9375C1.58409 16.9375 0 18.5216 0 20.4688C0 22.4159 1.58409 24 3.53123 24C5.47837 24 7.06247 22.4159 7.06247 20.4688C7.06247 19.3418 6.53119 18.3372 5.70661 17.6902L6.84708 15.4093C7.14014 15.4883 7.44788 15.5312 7.76559 15.5312C9.71278 15.5312 11.2969 13.9471 11.2969 12C11.2969 10.873 10.7656 9.86845 9.94102 9.22149L11.0814 6.94059C11.3745 7.01967 11.6823 7.06252 12 7.06252C12.3177 7.06252 12.6255 7.01962 12.9186 6.94059L14.059 9.22144C13.2344 9.86845 12.7031 10.873 12.7031 12C12.7031 13.127 13.2344 14.1315 14.059 14.7786L12.9186 17.0594C12.6255 16.9804 12.3177 16.9375 12 16.9375C10.0529 16.9375 8.46877 18.5216 8.46877 20.4688C8.46877 22.4159 10.0529 24 12 24C13.9471 24 15.5312 22.4159 15.5312 20.4688C15.5312 19.3418 15 18.3372 14.1754 17.6902L15.3158 15.4093C15.6089 15.4883 15.9167 15.5312 16.2344 15.5312C16.5521 15.5312 16.8599 15.4883 17.153 15.4093L18.2934 17.6902C17.4688 18.3372 16.9375 19.3418 16.9375 20.4688C16.9375 22.4159 18.5216 24 20.4688 24C22.4159 24 24 22.4159 24 20.4688C24 18.5216 22.4159 16.9375 20.4688 16.9375ZM3.53123 22.5938C2.3595 22.5938 1.40625 21.6405 1.40625 20.4688C1.40625 19.297 2.3595 18.3437 3.53123 18.3437C4.70297 18.3437 5.65622 19.297 5.65622 20.4688C5.65622 21.6405 4.70297 22.5938 3.53123 22.5938ZM7.76564 14.125C6.59391 14.125 5.64066 13.1717 5.64066 12C5.64066 10.8283 6.59391 9.87502 7.76564 9.87502C8.93738 9.87502 9.89062 10.8283 9.89062 12C9.89062 13.1717 8.93738 14.125 7.76564 14.125ZM9.87502 3.53123C9.87502 2.3595 10.8283 1.40625 12 1.40625C13.1717 1.40625 14.125 2.3595 14.125 3.53123C14.125 4.70297 13.1717 5.65627 12 5.65627C10.8283 5.65627 9.87502 4.70297 9.87502 3.53123ZM12 22.5938C10.8283 22.5938 9.87502 21.6405 9.87502 20.4688C9.87502 19.297 10.8283 18.3437 12 18.3437C13.1717 18.3437 14.125 19.297 14.125 20.4688C14.125 21.6405 13.1717 22.5938 12 22.5938ZM14.1094 12C14.1094 10.8283 15.0626 9.87502 16.2344 9.87502C17.4061 9.87502 18.3594 10.8283 18.3594 12C18.3594 13.1717 17.4061 14.125 16.2344 14.125C15.0626 14.125 14.1094 13.1717 14.1094 12ZM20.4688 22.5938C19.297 22.5938 18.3437 21.6405 18.3437 20.4688C18.3437 19.297 19.297 18.3437 20.4688 18.3437C21.6405 18.3437 22.5938 19.297 22.5938 20.4688C22.5938 21.6405 21.6405 22.5938 20.4688 22.5938Z" fill="#D33C1F"/>
</g>
<defs>
<clipPath id="clip0_8_1368">
<rect width="24" height="24" fill="white"/>
</clipPath>
</defs>
</svg>
