<svg width="24" height="24" viewBox="0 0 24 24" fill="none" xmlns="http://www.w3.org/2000/svg">
<path d="M18.6227 7.68373C18.4629 7.52839 18.2387 7.45775 18.0191 7.49389C17.7992 7.52984 17.6093 7.66789 17.5073 7.86598C17.1565 8.5475 16.7109 9.1738 16.1866 9.72744C16.2389 9.32755 16.2652 8.92517 16.2652 8.52176C16.2652 7.74767 16.1614 6.95108 15.9567 6.15397C15.2837 3.53553 13.519 1.32106 11.1149 0.0784988C10.9058 -0.0296888 10.6562 -0.0257981 10.4503 0.0886237C10.2444 0.203139 10.1095 0.413092 10.0911 0.647936C9.90367 3.0275 8.67794 5.19242 6.72644 6.58892C6.70056 6.60753 6.67492 6.62637 6.64928 6.64512C6.59622 6.68403 6.54611 6.72073 6.49937 6.75158C6.49206 6.75645 6.4848 6.76142 6.47762 6.76653C5.25025 7.6453 4.23752 8.8167 3.54883 10.1545C2.84898 11.5152 2.49414 12.9754 2.49414 14.4944C2.49414 15.2682 2.59787 16.0648 2.80248 16.8621C3.88225 21.0648 7.66431 23.9999 11.9997 23.9999C17.2409 23.9999 21.5048 19.7358 21.5048 14.4944C21.5048 11.9097 20.4813 9.49095 18.6227 7.68373ZM11.9997 22.5937C8.30645 22.5937 5.0845 20.0929 4.16458 16.5124C3.98931 15.8294 3.90039 15.1504 3.90039 14.4944C3.90039 13.2013 4.20283 11.9576 4.79922 10.798C5.38427 9.66158 6.24414 8.66567 7.2865 7.91703C7.35719 7.86983 7.42253 7.82192 7.48066 7.77936C7.50311 7.76286 7.52566 7.74636 7.54661 7.73127C9.53219 6.31034 10.8779 4.20856 11.3428 1.85141C12.943 2.95325 14.1064 4.60381 14.5948 6.50394C14.77 7.18667 14.859 7.86561 14.859 8.52181C14.859 9.48266 14.6829 10.4387 14.3355 11.3632C14.2293 11.6459 14.3155 11.9649 14.5496 12.1556C14.7838 12.3462 15.1135 12.3662 15.369 12.2051C16.5291 11.4729 17.5151 10.5012 18.2606 9.36266C19.4517 10.8071 20.0986 12.5985 20.0986 14.4944C20.0986 18.9604 16.4654 22.5937 11.9997 22.5937Z" fill="#D33C1F"/>
</svg>
