<svg width="24" height="24" viewBox="0 0 24 24" fill="none" xmlns="http://www.w3.org/2000/svg">
<path d="M7.21877 11.1505C7.04562 11.1505 6.87247 11.0861 6.73811 10.9566L2.78343 7.14735C2.60613 6.97628 2.53271 6.72487 2.59089 6.48524C2.64837 6.2456 2.82914 6.05514 3.06531 5.9845L4.28081 5.62019V2.4703C4.28081 1.67105 4.93115 1.02002 5.73109 1.02002H8.63096C9.43021 1.02002 10.0812 1.67036 10.0812 2.4703V5.6292L11.2836 5.98311C11.5191 6.05237 11.6998 6.24145 11.7601 6.479C11.8196 6.71726 11.749 6.96866 11.5738 7.14112L7.70497 10.9504C7.56991 11.084 7.39399 11.1505 7.21877 11.1505ZM4.59801 6.97213L7.21323 9.49107L9.76334 6.98044L9.19265 6.81283C8.8983 6.72626 8.69606 6.45546 8.69606 6.14864V2.47169C8.69606 2.43567 8.66697 2.40658 8.63096 2.40658H5.73109C5.69438 2.40658 5.66598 2.43498 5.66598 2.47169V6.13687C5.66598 6.44299 5.46513 6.71241 5.17217 6.80037L4.59801 6.97213Z" fill="#D33C1F"/>
<path d="M10.7968 22.9793C10.5024 22.9793 10.2046 22.9031 9.93034 22.7473C9.23914 22.3553 8.906 21.574 9.10062 20.8032L10.6022 14.8635H5.48392C4.60226 14.8635 3.84526 14.3579 3.50797 13.5434C3.17068 12.729 3.34867 11.8362 3.972 11.2129C4.2428 10.9428 4.68121 10.9428 4.95201 11.2129C5.22212 11.4837 5.22212 11.9221 4.95201 12.1922C4.62165 12.5226 4.74355 12.9035 4.78856 13.0129C4.83358 13.1224 5.01781 13.4783 5.48462 13.4783H11.4921C11.7061 13.4783 11.9077 13.5774 12.0386 13.7457C12.1695 13.914 12.2159 14.1342 12.1639 14.3406L10.4442 21.1425C10.384 21.3822 10.5433 21.502 10.6146 21.5422C10.6867 21.5844 10.8709 21.6585 11.0468 21.484L19.8177 12.7137C20.1481 12.3827 20.0262 12.0017 19.9805 11.8923C19.9355 11.7829 19.7513 11.4269 19.2845 11.4269H13.2769C13.0629 11.4269 12.8614 11.3286 12.7305 11.1603C12.5996 10.992 12.5532 10.7717 12.6051 10.5653L14.3241 3.7634C14.3851 3.52377 14.2244 3.40326 14.1538 3.36309C14.0817 3.32222 13.8968 3.24742 13.7223 3.42126L12.6003 4.54326C12.3295 4.81406 11.8918 4.81406 11.621 4.54326C11.3502 4.27245 11.3502 3.83474 11.621 3.56394L12.7429 2.44194C13.3046 1.87956 14.1468 1.76598 14.8373 2.15867C15.5285 2.55068 15.8617 3.33192 15.6671 4.10277L14.1655 10.0424H19.2838C20.1647 10.0424 20.9217 10.548 21.2597 11.3625C21.597 12.1763 21.4197 13.0697 20.7964 13.693L12.0254 22.464C11.6861 22.8034 11.2449 22.9793 10.7968 22.9793Z" fill="#D33C1F"/>
</svg>
