<svg width="24" height="24" viewBox="0 0 24 24" fill="none" xmlns="http://www.w3.org/2000/svg">
<path d="M12 1.25C17.9371 1.25 22.75 6.06294 22.75 12C22.75 17.9371 17.9371 22.75 12 22.75C6.06294 22.75 1.25 17.9371 1.25 12C1.25 6.06294 6.06294 1.25 12 1.25ZM11.999 6.25C11.4386 6.25 10.9949 6.67289 10.71 7.24414L10.709 7.24512L9.76855 9.14355L9.7666 9.14648C9.73792 9.20541 9.66995 9.28831 9.56836 9.36426C9.46707 9.43997 9.36914 9.48125 9.30664 9.49219L7.60156 9.77832C6.98507 9.88192 6.46954 10.1839 6.30273 10.71C6.13654 11.2347 6.381 11.7807 6.82129 12.2246L8.14746 13.5615C8.19999 13.6145 8.259 13.7147 8.2959 13.8447C8.33244 13.9736 8.33587 14.091 8.31934 14.167L8.31836 14.168L7.93945 15.8213C7.78181 16.5085 7.83669 17.1892 8.32129 17.5459C8.80823 17.9041 9.47339 17.749 10.0771 17.3877L11.6729 16.4346L11.6738 16.4336C11.7453 16.3921 11.8631 16.3604 12.001 16.3604C12.1402 16.3604 12.2561 16.3925 12.3232 16.4326L13.9219 17.3877C14.5263 17.7477 15.1918 17.9057 15.6787 17.5479C16.1639 17.1912 16.2158 16.5093 16.0586 15.8213L15.6797 14.168V14.167C15.6631 14.091 15.6665 13.9737 15.7031 13.8447C15.74 13.7147 15.799 13.6145 15.8516 13.5615L17.1768 12.2256C17.6197 11.7818 17.8655 11.2353 17.6982 10.71C17.5306 10.184 17.0137 9.88187 16.3975 9.77832L14.6914 9.49219C14.6259 9.48114 14.5265 9.43892 14.4248 9.36328C14.3231 9.28761 14.2552 9.20527 14.2266 9.14648L13.2842 7.24609C13.002 6.67428 12.56 6.25022 11.999 6.25Z" fill="#371A5B"/>
</svg>
