<svg width="190" height="31" viewBox="0 0 190 31" fill="none" xmlns="http://www.w3.org/2000/svg">
<g clip-path="url(#clip0_38_1063)">
<path d="M8.37647 30.5766L0 9.94141H6.452L11.8148 24.4739H10.9343L16.2553 9.94141H20.4453L25.7663 24.4739H24.9276L30.2903 9.94141H36.3212L28.0283 30.5801H22.6655L16.7181 15.2498H19.4395L13.7427 30.5801H8.37995L8.37647 30.5766Z" fill="white"/>
<path d="M48.8389 31C46.4099 31 44.3218 30.5661 42.5783 29.6948C40.8314 28.8235 39.4915 27.5812 38.5589 25.9681C37.6228 24.3549 37.1564 22.4373 37.1564 20.2188C37.1564 18.0002 37.6088 16.2261 38.5171 14.6374C39.4254 13.0523 40.6748 11.796 42.2651 10.8687C43.8555 9.94143 45.6582 9.47952 47.6696 9.47952C49.6811 9.47952 51.4525 9.90643 52.9036 10.7638C54.3548 11.6211 55.4789 12.8423 56.2758 14.4275C57.0727 16.0127 57.4695 17.8743 57.4695 20.0088V21.608H42.3904V18.3222H52.9036L52.232 18.91C52.232 17.1989 51.8631 15.8937 51.1219 14.9944C50.3806 14.0951 49.3262 13.6471 47.9585 13.6471C46.9249 13.6471 46.0445 13.8851 45.3206 14.3645C44.5933 14.8439 44.0365 15.5368 43.6467 16.4501C43.257 17.3634 43.0586 18.4516 43.0586 19.7149V20.0508C43.0586 21.482 43.2744 22.6613 43.7094 23.5886C44.1409 24.5159 44.8056 25.1947 45.6999 25.6321C46.5943 26.0695 47.6836 26.2865 48.9677 26.2865C50.0848 26.2865 51.2158 26.1185 52.3608 25.7826C53.5057 25.4467 54.5393 24.9253 55.4615 24.2254L57.1354 28.4805C56.1018 29.2399 54.8316 29.8488 53.3247 30.3142C51.8179 30.7796 50.3214 31.0105 48.8424 31.0105L48.8389 31Z" fill="white"/>
<path d="M73.8466 31C72.197 31 70.7389 30.5906 69.4687 29.7788C68.1984 28.9634 67.3528 27.8682 66.9352 26.4929H67.3528V30.5766H61.1548V0.885315H67.4781V13.7311H67.0187C67.4363 12.4679 68.275 11.4426 69.5313 10.6553C70.7876 9.86793 72.2249 9.47601 73.8466 9.47601C75.6597 9.47601 77.2396 9.91342 78.5794 10.7812C79.9192 11.6526 80.9667 12.8878 81.7219 14.487C82.4771 16.0861 82.8529 17.9967 82.8529 20.2153C82.8529 22.4338 82.484 24.3584 81.7428 25.9856C81.0015 27.6127 79.9471 28.8585 78.5794 29.7123C77.2118 30.5696 75.6318 30.9965 73.8466 30.9965V31ZM71.9604 26.283C73.3002 26.283 74.3894 25.7931 75.2281 24.8098C76.0668 23.8265 76.4844 22.2973 76.4844 20.2188C76.4844 18.1402 76.0668 16.66 75.2281 15.6907C74.3894 14.7214 73.3002 14.2385 71.9604 14.2385C70.6206 14.2385 69.5313 14.7214 68.6926 15.6907C67.8539 16.66 67.4363 18.1682 67.4363 20.2188C67.4363 22.2693 67.8539 23.8265 68.6926 24.8098C69.5313 25.7931 70.6206 26.283 71.9604 26.283Z" fill="white"/>
<path d="M130.481 31C127.857 31 125.929 30.3106 124.7 28.9354C123.472 27.5602 122.856 25.4957 122.856 22.7452V0.885315H129.179V22.4933C129.179 23.2246 129.291 23.8405 129.513 24.3479C129.736 24.8518 130.063 25.2262 130.498 25.4642C130.93 25.7021 131.483 25.8211 132.155 25.8211C132.461 25.8211 132.76 25.8141 133.056 25.8001C133.348 25.7861 133.62 25.7371 133.874 25.6531L133.832 30.5801C133.272 30.7201 132.729 30.825 132.196 30.895C131.664 30.965 131.093 31 130.481 31Z" fill="white"/>
<path d="M136.553 5.89626V0H143.423V5.89626H136.553ZM136.808 30.5766V9.94141H143.131V30.5801H136.808V30.5766Z" fill="white"/>
<path d="M158.043 31C155.809 31 153.867 30.5661 152.221 29.6948C150.571 28.8235 149.294 27.5742 148.389 25.9471C147.481 24.3199 147.028 22.3953 147.028 20.1768C147.028 17.9582 147.481 16.0476 148.389 14.4485C149.297 12.8493 150.575 11.6211 152.221 10.7638C153.867 9.90643 155.809 9.47952 158.043 9.47952C159.383 9.47952 160.708 9.67548 162.02 10.0674C163.332 10.4593 164.422 11.0227 165.288 11.7505L163.531 16.1316C162.859 15.5438 162.087 15.0923 161.206 14.7844C160.326 14.4765 159.48 14.3225 158.673 14.3225C157.027 14.3225 155.746 14.8264 154.841 15.8377C153.936 16.849 153.48 18.2942 153.48 20.1768C153.48 22.0594 153.933 23.4976 154.841 24.5789C155.749 25.6601 157.027 26.199 158.673 26.199C159.456 26.199 160.291 26.0311 161.185 25.6951C162.08 25.3592 162.859 24.9078 163.531 24.3479L165.288 28.771C164.422 29.4463 163.325 29.9852 162 30.3911C160.674 30.7971 159.355 31.0035 158.043 31.0035V31Z" fill="white"/>
<path d="M168.051 30.5766V0.885315H174.378V18.4901H174.462L182.003 9.94142H189.541L179.783 20.9361V18.5356L190.003 30.5801H182.337L174.462 21.65H174.378V30.5801H168.051V30.5766Z" fill="white"/>
<path d="M117.612 7.84884C116.609 9.0001 115.572 9.29754 114.076 9.45151C113.091 9.55299 112.458 9.44451 111.504 9.35003C107.704 8.9861 103.911 8.5417 100.114 8.10779C98.6419 7.93982 97.5178 7.96082 96.4912 6.74657C95.1375 5.14391 95.8613 2.55795 97.925 2.11005C99.1395 1.8476 100.573 1.72513 101.823 1.56066C105.163 1.12675 108.518 0.717338 111.873 0.412902C113.074 0.304425 114.518 0.0174852 115.684 0.37791C118.844 1.3577 119.745 5.40286 117.615 7.84534L117.612 7.84884Z" fill="white"/>
<path d="M91.9776 10.1304C93.3313 10.0184 95.3393 10.3718 96.7383 10.5258C99.3831 10.8162 102.024 11.1452 104.662 11.4916C105.933 11.6561 107.62 11.733 108.818 12.083C111.779 12.9578 111.441 17.1359 108.424 17.7308C107.492 17.9162 106.388 17.9827 105.424 18.1052C102.62 18.4656 99.8216 18.7841 97.0132 19.085C94.7407 19.3264 91.8941 20.0753 89.9035 18.6091C86.6044 16.1806 87.718 10.4768 91.9776 10.1269V10.1304Z" fill="white"/>
<path d="M99.5571 21.7164C102.397 21.5065 104.798 23.8055 104.541 26.6924C104.172 30.8285 98.8333 32.6342 96.3102 29.1559C94.1909 26.234 95.9065 21.9824 99.5571 21.7129V21.7164Z" fill="white"/>
</g>
<defs>
<clipPath id="clip0_38_1063">
<rect width="190" height="31" fill="white"/>
</clipPath>
</defs>
</svg>
